<?xml version="1.0" encoding="UTF-8"?>
<svg xmlns="http://www.w3.org/2000/svg" width="900" height="560" viewBox="0 0 900 560">
<style>
text { font-family: Arial, sans-serif; fill: #1f2933; }
.title { font-size: 22px; font-weight: 700; }
.label { font-size: 14px; }
.tick { font-size: 12px; fill: #52606d; }
.grid { stroke: #d9e2ec; stroke-width: 1; }
.axis { stroke: #334e68; stroke-width: 1.5; }
.line { fill: none; stroke: #0b7285; stroke-width: 3; }
.dot { fill: #0b7285; }
</style>
<rect x="0" y="0" width="900" height="560" fill="#ffffff"/>
<text class="title" x="72" y="32">Eventual Win Rate by Noncreature Spells Cast (1000 runs)</text>
<line class="grid" x1="72" y1="488.0" x2="872" y2="488.0"/>
<text class="tick" x="60" y="492.0" text-anchor="end">0%</text>
<line class="grid" x1="72" y1="379.0" x2="872" y2="379.0"/>
<text class="tick" x="60" y="383.0" text-anchor="end">25%</text>
<line class="grid" x1="72" y1="270.0" x2="872" y2="270.0"/>
<text class="tick" x="60" y="274.0" text-anchor="end">50%</text>
<line class="grid" x1="72" y1="161.0" x2="872" y2="161.0"/>
<text class="tick" x="60" y="165.0" text-anchor="end">75%</text>
<line class="grid" x1="72" y1="52.0" x2="872" y2="52.0"/>
<text class="tick" x="60" y="56.0" text-anchor="end">100%</text>
<line class="grid" x1="72.0" y1="52" x2="72.0" y2="488"/>
<text class="tick" x="72.0" y="510" text-anchor="middle">0</text>
<line class="grid" x1="172.0" y1="52" x2="172.0" y2="488"/>
<text class="tick" x="172.0" y="510" text-anchor="middle">5</text>
<line class="grid" x1="272.0" y1="52" x2="272.0" y2="488"/>
<text class="tick" x="272.0" y="510" text-anchor="middle">10</text>
<line class="grid" x1="372.0" y1="52" x2="372.0" y2="488"/>
<text class="tick" x="372.0" y="510" text-anchor="middle">15</text>
<line class="grid" x1="472.0" y1="52" x2="472.0" y2="488"/>
<text class="tick" x="472.0" y="510" text-anchor="middle">20</text>
<line class="grid" x1="572.0" y1="52" x2="572.0" y2="488"/>
<text class="tick" x="572.0" y="510" text-anchor="middle">25</text>
<line class="grid" x1="672.0" y1="52" x2="672.0" y2="488"/>
<text class="tick" x="672.0" y="510" text-anchor="middle">30</text>
<line class="grid" x1="772.0" y1="52" x2="772.0" y2="488"/>
<text class="tick" x="772.0" y="510" text-anchor="middle">35</text>
<line class="grid" x1="872.0" y1="52" x2="872.0" y2="488"/>
<text class="tick" x="872.0" y="510" text-anchor="middle">40</text>
<line class="axis" x1="72" y1="488" x2="872" y2="488"/>
<line class="axis" x1="72" y1="52" x2="72" y2="488"/>
<polyline class="line" points="72.0,357.6 92.0,302.8 112.0,272.9 132.0,245.7 152.0,223.2 172.0,199.7 192.0,182.5 212.0,164.3 232.0,153.8 252.0,138.3 272.0,128.3 292.0,118.7 312.0,111.5 332.0,109.3 352.0,102.1 372.0,92.7 392.0,93.0 412.0,93.1 432.0,92.4 452.0,87.0 472.0,87.2 492.0,84.7 512.0,84.3 532.0,78.4 552.0,75.7 572.0,76.8 592.0,74.6 612.0,69.9 632.0,71.0 652.0,72.4 672.0,74.9 692.0,76.2 712.0,77.6 732.0,71.8 752.0,72.8 772.0,73.3 792.0,75.6 812.0,76.9 832.0,52.0 852.0,52.0 872.0,52.0"/>
<circle class="dot" cx="72.0" cy="357.6" r="3"><title>0 spells: 29.9% (299/1000)</title></circle>
<circle class="dot" cx="92.0" cy="302.8" r="3"><title>1 spells: 42.5% (299/704)</title></circle>
<circle class="dot" cx="112.0" cy="272.9" r="3"><title>2 spells: 49.3% (299/606)</title></circle>
<circle class="dot" cx="132.0" cy="245.7" r="3"><title>3 spells: 55.6% (299/538)</title></circle>
<circle class="dot" cx="152.0" cy="223.2" r="3"><title>4 spells: 60.7% (294/484)</title></circle>
<circle class="dot" cx="172.0" cy="199.7" r="3"><title>5 spells: 66.1% (285/431)</title></circle>
<circle class="dot" cx="192.0" cy="182.5" r="3"><title>6 spells: 70.1% (281/401)</title></circle>
<circle class="dot" cx="212.0" cy="164.3" r="3"><title>7 spells: 74.2% (271/365)</title></circle>
<circle class="dot" cx="232.0" cy="153.8" r="3"><title>8 spells: 76.6% (256/334)</title></circle>
<circle class="dot" cx="252.0" cy="138.3" r="3"><title>9 spells: 80.2% (243/303)</title></circle>
<circle class="dot" cx="272.0" cy="128.3" r="3"><title>10 spells: 82.5% (231/280)</title></circle>
<circle class="dot" cx="292.0" cy="118.7" r="3"><title>11 spells: 84.7% (216/255)</title></circle>
<circle class="dot" cx="312.0" cy="111.5" r="3"><title>12 spells: 86.3% (196/227)</title></circle>
<circle class="dot" cx="332.0" cy="109.3" r="3"><title>13 spells: 86.9% (185/213)</title></circle>
<circle class="dot" cx="352.0" cy="102.1" r="3"><title>14 spells: 88.5% (177/200)</title></circle>
<circle class="dot" cx="372.0" cy="92.7" r="3"><title>15 spells: 90.7% (165/182)</title></circle>
<circle class="dot" cx="392.0" cy="93.0" r="3"><title>16 spells: 90.6% (154/170)</title></circle>
<circle class="dot" cx="412.0" cy="93.1" r="3"><title>17 spells: 90.6% (144/159)</title></circle>
<circle class="dot" cx="432.0" cy="92.4" r="3"><title>18 spells: 90.7% (137/151)</title></circle>
<circle class="dot" cx="452.0" cy="87.0" r="3"><title>19 spells: 92.0% (126/137)</title></circle>
<circle class="dot" cx="472.0" cy="87.2" r="3"><title>20 spells: 91.9% (114/124)</title></circle>
<circle class="dot" cx="492.0" cy="84.7" r="3"><title>21 spells: 92.5% (111/120)</title></circle>
<circle class="dot" cx="512.0" cy="84.3" r="3"><title>22 spells: 92.6% (100/108)</title></circle>
<circle class="dot" cx="532.0" cy="78.4" r="3"><title>23 spells: 93.9% (93/99)</title></circle>
<circle class="dot" cx="552.0" cy="75.7" r="3"><title>24 spells: 94.6% (87/92)</title></circle>
<circle class="dot" cx="572.0" cy="76.8" r="3"><title>25 spells: 94.3% (83/88)</title></circle>
<circle class="dot" cx="592.0" cy="74.6" r="3"><title>26 spells: 94.8% (73/77)</title></circle>
<circle class="dot" cx="612.0" cy="69.9" r="3"><title>27 spells: 95.9% (70/73)</title></circle>
<circle class="dot" cx="632.0" cy="71.0" r="3"><title>28 spells: 95.7% (66/69)</title></circle>
<circle class="dot" cx="652.0" cy="72.4" r="3"><title>29 spells: 95.3% (61/64)</title></circle>
<circle class="dot" cx="672.0" cy="74.9" r="3"><title>30 spells: 94.7% (54/57)</title></circle>
<circle class="dot" cx="692.0" cy="76.2" r="3"><title>31 spells: 94.4% (51/54)</title></circle>
<circle class="dot" cx="712.0" cy="77.6" r="3"><title>32 spells: 94.1% (48/51)</title></circle>
<circle class="dot" cx="732.0" cy="71.8" r="3"><title>33 spells: 95.5% (42/44)</title></circle>
<circle class="dot" cx="752.0" cy="72.8" r="3"><title>34 spells: 95.2% (40/42)</title></circle>
<circle class="dot" cx="772.0" cy="73.3" r="3"><title>35 spells: 95.1% (39/41)</title></circle>
<circle class="dot" cx="792.0" cy="75.6" r="3"><title>36 spells: 94.6% (35/37)</title></circle>
<circle class="dot" cx="812.0" cy="76.9" r="3"><title>37 spells: 94.3% (33/35)</title></circle>
<circle class="dot" cx="832.0" cy="52.0" r="3"><title>38 spells: 100.0% (33/33)</title></circle>
<circle class="dot" cx="852.0" cy="52.0" r="3"><title>39 spells: 100.0% (32/32)</title></circle>
<circle class="dot" cx="872.0" cy="52.0" r="3"><title>40 spells: 100.0% (32/32)</title></circle>
<text class="label" x="472.0" y="538" text-anchor="middle">Noncreature spells cast so far</text>
<text class="label" x="20" y="270.0" text-anchor="middle" transform="rotate(-90 20 270.0)">Eventual win rate</text>
</svg>
