<?xml version="1.0" encoding="UTF-8"?>
<svg xmlns="http://www.w3.org/2000/svg" width="820" height="680" viewBox="0 0 820 680">
<style>
text { font-family: Arial, sans-serif; fill: #1f2933; }
.title { font-size: 22px; font-weight: 700; }
.axis-label { font-size: 15px; font-weight: 700; }
.tick { font-size: 13px; fill: #52606d; }
.cell-label { font-size: 16px; font-weight: 700; fill: #102a43; }
.cell-sub { font-size: 11px; fill: #334e68; }
.legend { font-size: 12px; fill: #52606d; }
</style>
<rect x="0" y="0" width="820" height="680" fill="#ffffff"/>
<text class="title" x="96" y="36">Win Rate by Starting Mana (100 runs per cell)</text>
<text class="tick" x="133.0" y="60" text-anchor="middle">0</text>
<text class="tick" x="215.0" y="60" text-anchor="middle">1</text>
<text class="tick" x="297.0" y="60" text-anchor="middle">2</text>
<text class="tick" x="379.0" y="60" text-anchor="middle">3</text>
<text class="tick" x="461.0" y="60" text-anchor="middle">4</text>
<text class="tick" x="543.0" y="60" text-anchor="middle">5</text>
<text class="tick" x="78" y="118.0" text-anchor="end">5</text>
<text class="tick" x="78" y="200.0" text-anchor="end">4</text>
<text class="tick" x="78" y="282.0" text-anchor="end">3</text>
<text class="tick" x="78" y="364.0" text-anchor="end">2</text>
<text class="tick" x="78" y="446.0" text-anchor="end">1</text>
<text class="tick" x="78" y="528.0" text-anchor="end">0</text>
<rect x="96" y="76" width="74" height="74" rx="6" fill="rgb(112,210,203)">
<title>U=5, R=0: 58.0% (58/100)</title>
</rect>
<text class="cell-label" x="133.0" y="110.0" text-anchor="middle">58%</text>
<text class="cell-sub" x="133.0" y="128.0" text-anchor="middle">58/100</text>
<rect x="178" y="76" width="74" height="74" rx="6" fill="rgb(88,203,194)">
<title>U=5, R=1: 69.0% (69/100)</title>
</rect>
<text class="cell-label" x="215.0" y="110.0" text-anchor="middle">69%</text>
<text class="cell-sub" x="215.0" y="128.0" text-anchor="middle">69/100</text>
<rect x="260" y="76" width="74" height="74" rx="6" fill="rgb(59,195,182)">
<title>U=5, R=2: 82.0% (82/100)</title>
</rect>
<text class="cell-label" x="297.0" y="110.0" text-anchor="middle">82%</text>
<text class="cell-sub" x="297.0" y="128.0" text-anchor="middle">82/100</text>
<rect x="342" y="76" width="74" height="74" rx="6" fill="rgb(48,192,178)">
<title>U=5, R=3: 87.0% (87/100)</title>
</rect>
<text class="cell-label" x="379.0" y="110.0" text-anchor="middle">87%</text>
<text class="cell-sub" x="379.0" y="128.0" text-anchor="middle">87/100</text>
<rect x="424" y="76" width="74" height="74" rx="6" fill="rgb(55,194,180)">
<title>U=5, R=4: 84.0% (84/100)</title>
</rect>
<text class="cell-label" x="461.0" y="110.0" text-anchor="middle">84%</text>
<text class="cell-sub" x="461.0" y="128.0" text-anchor="middle">84/100</text>
<rect x="506" y="76" width="74" height="74" rx="6" fill="rgb(55,194,180)">
<title>U=5, R=5: 84.0% (84/100)</title>
</rect>
<text class="cell-label" x="543.0" y="110.0" text-anchor="middle">84%</text>
<text class="cell-sub" x="543.0" y="128.0" text-anchor="middle">84/100</text>
<rect x="96" y="158" width="74" height="74" rx="6" fill="rgb(116,211,205)">
<title>U=4, R=0: 56.0% (56/100)</title>
</rect>
<text class="cell-label" x="133.0" y="192.0" text-anchor="middle">56%</text>
<text class="cell-sub" x="133.0" y="210.0" text-anchor="middle">56/100</text>
<rect x="178" y="158" width="74" height="74" rx="6" fill="rgb(92,204,195)">
<title>U=4, R=1: 67.0% (67/100)</title>
</rect>
<text class="cell-label" x="215.0" y="192.0" text-anchor="middle">67%</text>
<text class="cell-sub" x="215.0" y="210.0" text-anchor="middle">67/100</text>
<rect x="260" y="158" width="74" height="74" rx="6" fill="rgb(75,200,188)">
<title>U=4, R=2: 75.0% (75/100)</title>
</rect>
<text class="cell-label" x="297.0" y="192.0" text-anchor="middle">75%</text>
<text class="cell-sub" x="297.0" y="210.0" text-anchor="middle">75/100</text>
<rect x="342" y="158" width="74" height="74" rx="6" fill="rgb(46,191,177)">
<title>U=4, R=3: 88.0% (88/100)</title>
</rect>
<text class="cell-label" x="379.0" y="192.0" text-anchor="middle">88%</text>
<text class="cell-sub" x="379.0" y="210.0" text-anchor="middle">88/100</text>
<rect x="424" y="158" width="74" height="74" rx="6" fill="rgb(40,190,174)">
<title>U=4, R=4: 91.0% (91/100)</title>
</rect>
<text class="cell-label" x="461.0" y="192.0" text-anchor="middle">91%</text>
<text class="cell-sub" x="461.0" y="210.0" text-anchor="middle">91/100</text>
<rect x="506" y="158" width="74" height="74" rx="6" fill="rgb(46,191,177)">
<title>U=4, R=5: 88.0% (88/100)</title>
</rect>
<text class="cell-label" x="543.0" y="192.0" text-anchor="middle">88%</text>
<text class="cell-sub" x="543.0" y="210.0" text-anchor="middle">88/100</text>
<rect x="96" y="240" width="74" height="74" rx="6" fill="rgb(116,211,205)">
<title>U=3, R=0: 56.0% (56/100)</title>
</rect>
<text class="cell-label" x="133.0" y="274.0" text-anchor="middle">56%</text>
<text class="cell-sub" x="133.0" y="292.0" text-anchor="middle">56/100</text>
<rect x="178" y="240" width="74" height="74" rx="6" fill="rgb(101,207,199)">
<title>U=3, R=1: 63.0% (63/100)</title>
</rect>
<text class="cell-label" x="215.0" y="274.0" text-anchor="middle">63%</text>
<text class="cell-sub" x="215.0" y="292.0" text-anchor="middle">63/100</text>
<rect x="260" y="240" width="74" height="74" rx="6" fill="rgb(70,198,186)">
<title>U=3, R=2: 77.0% (77/100)</title>
</rect>
<text class="cell-label" x="297.0" y="274.0" text-anchor="middle">77%</text>
<text class="cell-sub" x="297.0" y="292.0" text-anchor="middle">77/100</text>
<rect x="342" y="240" width="74" height="74" rx="6" fill="rgb(46,191,177)">
<title>U=3, R=3: 88.0% (88/100)</title>
</rect>
<text class="cell-label" x="379.0" y="274.0" text-anchor="middle">88%</text>
<text class="cell-sub" x="379.0" y="292.0" text-anchor="middle">88/100</text>
<rect x="424" y="240" width="74" height="74" rx="6" fill="rgb(44,191,176)">
<title>U=3, R=4: 89.0% (89/100)</title>
</rect>
<text class="cell-label" x="461.0" y="274.0" text-anchor="middle">89%</text>
<text class="cell-sub" x="461.0" y="292.0" text-anchor="middle">89/100</text>
<rect x="506" y="240" width="74" height="74" rx="6" fill="rgb(48,192,178)">
<title>U=3, R=5: 87.0% (87/100)</title>
</rect>
<text class="cell-label" x="543.0" y="274.0" text-anchor="middle">87%</text>
<text class="cell-sub" x="543.0" y="292.0" text-anchor="middle">87/100</text>
<rect x="96" y="322" width="74" height="74" rx="6" fill="rgb(167,226,226)">
<title>U=2, R=0: 33.0% (33/100)</title>
</rect>
<text class="cell-label" x="133.0" y="356.0" text-anchor="middle">33%</text>
<text class="cell-sub" x="133.0" y="374.0" text-anchor="middle">33/100</text>
<rect x="178" y="322" width="74" height="74" rx="6" fill="rgb(112,210,203)">
<title>U=2, R=1: 58.0% (58/100)</title>
</rect>
<text class="cell-label" x="215.0" y="356.0" text-anchor="middle">58%</text>
<text class="cell-sub" x="215.0" y="374.0" text-anchor="middle">58/100</text>
<rect x="260" y="322" width="74" height="74" rx="6" fill="rgb(73,199,187)">
<title>U=2, R=2: 76.0% (76/100)</title>
</rect>
<text class="cell-label" x="297.0" y="356.0" text-anchor="middle">76%</text>
<text class="cell-sub" x="297.0" y="374.0" text-anchor="middle">76/100</text>
<rect x="342" y="322" width="74" height="74" rx="6" fill="rgb(64,196,184)">
<title>U=2, R=3: 80.0% (80/100)</title>
</rect>
<text class="cell-label" x="379.0" y="356.0" text-anchor="middle">80%</text>
<text class="cell-sub" x="379.0" y="374.0" text-anchor="middle">80/100</text>
<rect x="424" y="322" width="74" height="74" rx="6" fill="rgb(66,197,185)">
<title>U=2, R=4: 79.0% (79/100)</title>
</rect>
<text class="cell-label" x="461.0" y="356.0" text-anchor="middle">79%</text>
<text class="cell-sub" x="461.0" y="374.0" text-anchor="middle">79/100</text>
<rect x="506" y="322" width="74" height="74" rx="6" fill="rgb(48,192,178)">
<title>U=2, R=5: 87.0% (87/100)</title>
</rect>
<text class="cell-label" x="543.0" y="356.0" text-anchor="middle">87%</text>
<text class="cell-sub" x="543.0" y="374.0" text-anchor="middle">87/100</text>
<rect x="96" y="404" width="74" height="74" rx="6" fill="rgb(180,229,231)">
<title>U=1, R=0: 27.0% (27/100)</title>
</rect>
<text class="cell-label" x="133.0" y="438.0" text-anchor="middle">27%</text>
<text class="cell-sub" x="133.0" y="456.0" text-anchor="middle">27/100</text>
<rect x="178" y="404" width="74" height="74" rx="6" fill="rgb(138,217,214)">
<title>U=1, R=1: 46.0% (46/100)</title>
</rect>
<text class="cell-label" x="215.0" y="438.0" text-anchor="middle">46%</text>
<text class="cell-sub" x="215.0" y="456.0" text-anchor="middle">46/100</text>
<rect x="260" y="404" width="74" height="74" rx="6" fill="rgb(92,204,195)">
<title>U=1, R=2: 67.0% (67/100)</title>
</rect>
<text class="cell-label" x="297.0" y="438.0" text-anchor="middle">67%</text>
<text class="cell-sub" x="297.0" y="456.0" text-anchor="middle">67/100</text>
<rect x="342" y="404" width="74" height="74" rx="6" fill="rgb(94,205,196)">
<title>U=1, R=3: 66.0% (66/100)</title>
</rect>
<text class="cell-label" x="379.0" y="438.0" text-anchor="middle">66%</text>
<text class="cell-sub" x="379.0" y="456.0" text-anchor="middle">66/100</text>
<rect x="424" y="404" width="74" height="74" rx="6" fill="rgb(57,195,181)">
<title>U=1, R=4: 83.0% (83/100)</title>
</rect>
<text class="cell-label" x="461.0" y="438.0" text-anchor="middle">83%</text>
<text class="cell-sub" x="461.0" y="456.0" text-anchor="middle">83/100</text>
<rect x="506" y="404" width="74" height="74" rx="6" fill="rgb(68,198,186)">
<title>U=1, R=5: 78.0% (78/100)</title>
</rect>
<text class="cell-label" x="543.0" y="438.0" text-anchor="middle">78%</text>
<text class="cell-sub" x="543.0" y="456.0" text-anchor="middle">78/100</text>
<rect x="96" y="486" width="74" height="74" rx="6" fill="rgb(215,239,245)">
<title>U=0, R=0: 11.0% (11/100)</title>
</rect>
<text class="cell-label" x="133.0" y="520.0" text-anchor="middle">11%</text>
<text class="cell-sub" x="133.0" y="538.0" text-anchor="middle">11/100</text>
<rect x="178" y="486" width="74" height="74" rx="6" fill="rgb(171,227,227)">
<title>U=0, R=1: 31.0% (31/100)</title>
</rect>
<text class="cell-label" x="215.0" y="520.0" text-anchor="middle">31%</text>
<text class="cell-sub" x="215.0" y="538.0" text-anchor="middle">31/100</text>
<rect x="260" y="486" width="74" height="74" rx="6" fill="rgb(151,221,219)">
<title>U=0, R=2: 40.0% (40/100)</title>
</rect>
<text class="cell-label" x="297.0" y="520.0" text-anchor="middle">40%</text>
<text class="cell-sub" x="297.0" y="538.0" text-anchor="middle">40/100</text>
<rect x="342" y="486" width="74" height="74" rx="6" fill="rgb(110,209,202)">
<title>U=0, R=3: 59.0% (59/100)</title>
</rect>
<text class="cell-label" x="379.0" y="520.0" text-anchor="middle">59%</text>
<text class="cell-sub" x="379.0" y="538.0" text-anchor="middle">59/100</text>
<rect x="424" y="486" width="74" height="74" rx="6" fill="rgb(75,200,188)">
<title>U=0, R=4: 75.0% (75/100)</title>
</rect>
<text class="cell-label" x="461.0" y="520.0" text-anchor="middle">75%</text>
<text class="cell-sub" x="461.0" y="538.0" text-anchor="middle">75/100</text>
<rect x="506" y="486" width="74" height="74" rx="6" fill="rgb(110,209,202)">
<title>U=0, R=5: 59.0% (59/100)</title>
</rect>
<text class="cell-label" x="543.0" y="520.0" text-anchor="middle">59%</text>
<text class="cell-sub" x="543.0" y="538.0" text-anchor="middle">59/100</text>
<text class="axis-label" x="338.0" y="608" text-anchor="middle">Starting red mana</text>
<text class="axis-label" x="28" y="318.0" text-anchor="middle" transform="rotate(-90 28 318.0)">Starting blue mana</text>
<text class="legend" x="630" y="112">Win rate</text>
<rect x="630" y="130" width="28" height="28" rx="4" fill="rgb(239,246,255)"/>
<text class="legend" x="670" y="149">0%</text>
<rect x="630" y="172" width="28" height="28" rx="4" fill="rgb(184,230,233)"/>
<text class="legend" x="670" y="191">25%</text>
<rect x="630" y="214" width="28" height="28" rx="4" fill="rgb(130,215,210)"/>
<text class="legend" x="670" y="233">50%</text>
<rect x="630" y="256" width="28" height="28" rx="4" fill="rgb(75,200,188)"/>
<text class="legend" x="670" y="275">75%</text>
<rect x="630" y="298" width="28" height="28" rx="4" fill="rgb(20,184,166)"/>
<text class="legend" x="670" y="317">100%</text>
</svg>
